<svg xmlns="http://www.w3.org/2000/svg" xmlns:xlink="http://www.w3.org/1999/xlink" width="651.33" height="162.51" viewBox="0 0 651.33 162.51"><defs><style>.cls-1{fill:#282828;}.cls-2,.cls-3,.cls-4,.cls-5,.cls-6{fill-rule:evenodd;}.cls-2{fill:url(#未命名的渐变_121);}.cls-3{fill:url(#未命名的渐变_118);}.cls-4{fill:url(#未命名的渐变_116);}.cls-5{fill:url(#未命名的渐变_126);}.cls-6{fill:url(#未命名的渐变_85);}</style><linearGradient id="未命名的渐变_121" x1="110.51" y1="133.16" x2="110.51" gradientUnits="userSpaceOnUse"><stop offset="0" stop-color="#008dff"/><stop offset="0.92" stop-color="#5171ec"/></linearGradient><linearGradient id="未命名的渐变_118" x1="55.65" y1="50.92" x2="47.03" y2="144.01" gradientUnits="userSpaceOnUse"><stop offset="0" stop-color="#1535d2"/><stop offset="1" stop-color="#4985ff"/></linearGradient><linearGradient id="未命名的渐变_116" x1="138.66" y1="73.73" x2="115.96" y2="91.83" gradientUnits="userSpaceOnUse"><stop offset="0" stop-color="#1546d2"/><stop offset="1" stop-color="#4985ff"/></linearGradient><linearGradient id="未命名的渐变_126" x1="36.63" y1="130.81" x2="127.01" y2="152.9" gradientUnits="userSpaceOnUse"><stop offset="0" stop-color="#00a6ff"/><stop offset="1" stop-color="#5171ec"/></linearGradient><linearGradient id="未命名的渐变_85" x1="48.53" y1="51" x2="73.15" y2="70.68" gradientUnits="userSpaceOnUse"><stop offset="0" stop-color="#1d2f99"/><stop offset="1" stop-color="#5171ec"/></linearGradient></defs><g id="图层_2" data-name="图层 2"><g id="图层_1-2" data-name="图层 1"><path class="cls-1" d="M403.65,38.17c-.11,19.72,2.45,11.34-13.9,13.73a29.48,29.48,0,0,0-16.82,10v59.9a2.61,2.61,0,0,1-2.62,2.61H359v-87h11.29c3.31-.06,2.58,4.26,2.62,6.37A43.67,43.67,0,0,1,403.65,38.17Z"/><path class="cls-1" d="M333.84,37.42c-3.09-.05-2.64,3.75-2.62,5.81a43.5,43.5,0,1,0,0,75.37c0,2.07-.47,5.87,2.62,5.81h11.29v-87ZM331.22,101a29.6,29.6,0,1,1,0-40.18Z"/><path class="cls-1" d="M567.6,37.42v87H556.32a2.61,2.61,0,0,1-2.62-2.61v-6.64a43.1,43.1,0,0,1-19.2,8.59c-13.28,2.32-29.59-3-35.24-15.64-1.72-3.86-1.91-8.29-2-12.73v-58h11.29A2.61,2.61,0,0,1,511.2,40v54a29.42,29.42,0,0,0,.37,5.48,13.2,13.2,0,0,0,10.89,10.64A29.55,29.55,0,0,0,553.7,93.43V40a2.61,2.61,0,0,1,2.62-2.61Z"/><path class="cls-1" d="M472.09,37.42A2.61,2.61,0,0,0,469.47,40v3.42a43.1,43.1,0,0,0-22.32-6.18q-1.84,0-3.63.15a43.51,43.51,0,0,0-35.11,63.16,0,0,0,0,0,0,0A43.52,43.52,0,0,0,449,124.22a42.74,42.74,0,0,0,20.37-6l.13-.07a29.61,29.61,0,0,1-1.36,11c-5.61,18.6-31.83,23.78-44.15,8.81-.15.13-9.1,9.09-9.25,9.22a35,35,0,0,0,2.86,2.72c14.24,12.72,37.66,12.72,51.89,0h0a39.9,39.9,0,0,0,13.91-29.66V37.42Zm-2.62,62.77a28.08,28.08,0,0,1-3.63,3.52A29.59,29.59,0,1,1,443.52,51.4a28.84,28.84,0,0,1,3.62-.22,29.49,29.49,0,0,1,22.33,10.17Z"/><path class="cls-1" d="M651.26,97.92c0,4.16,0,7-3.53,12.59s-11.34,13.9-32.12,13.9-34.11-10.12-34.11-10.12V103.44a1.7,1.7,0,0,1,2.79-1.31l.13.11c7.24,6.5,23.92,10.16,32.89,10,10.62-.14,22.33-3.34,19.84-15.59C634.8,85.08,609,87.16,595.24,81.24c-11.17-4.81-13.4-12.16-13.74-19.47s4.12-14.85,13.91-19.89,24.7-5.76,35.63-2.17c11.81,3.88,16.58,7.52,16.58,7.52s0,6.5,0,10.58a1.72,1.72,0,0,1-2.79,1.39,45.55,45.55,0,0,0-27.47-10.07c-8.47-.17-22,3.13-22,11.87s9,11.68,24.35,13.26C654.18,78.84,651.26,97.92,651.26,97.92Z"/><path class="cls-2" d="M221,81.25A22.22,22.22,0,0,1,209.64,101l-55.76,32.2a81.36,81.36,0,0,0-17.66-69.42q-2.1-2.46-4.41-4.77A80.81,80.81,0,0,0,94.2,37.62h0l-1-.29-1-.26-.06,0-1-.22-.16,0-.75-.16-.5-.1-.93-.16-.66-.1c-.74-.12-1.49-.21-2.23-.29h-.1A81.37,81.37,0,0,0,0,83.51a81.43,81.43,0,0,1,34-68.4l1.32-.93q2.69-1.83,5.48-3.44c.58-.33,1.16-.66,1.75-1,1.26-.69,2.54-1.34,3.84-2l1.23-.56c.49-.23,1-.44,1.47-.65L50.68,6c1.22-.5,2.46-1,3.7-1.4.85-.3,1.71-.58,2.57-.85.48-.15,1-.3,1.44-.43l1.36-.39L61.2,2.5l1.68-.41,1.69-.37,1.16-.23c.64-.13,1.28-.24,1.93-.35l1-.16,1-.14,1-.14,1-.12,1-.11L73.23.4c.4-.05.8-.08,1.2-.11l1-.08,1-.06,2-.1.81,0c.73,0,1.47,0,2.2,0l2.09,0h.65c.88,0,1.75.08,2.63.13l1,.08q1.53.12,3.06.3l.85.1q.42,0,.84.12l.85.12.84.13c.85.13,1.69.28,2.53.45l.84.16,1.34.28c.89.2,1.78.41,2.67.64h0l1.31.35,1.33.38c.88.25,1.75.53,2.63.82l1,.33c.65.22,1.3.46,1.94.7l1,.37L112,6l1.28.54c.85.36,1.7.74,2.54,1.13l.88.43c.58.28,1.17.57,1.74.87h0l.87.46c.58.3,1.15.61,1.72.93h0l.85.49c.29.16.57.33.85.5l.47.28.18.1,0,0,86.2,49.77A22.22,22.22,0,0,1,221,81.25Z"/><path class="cls-3" d="M101.53,123.48a81.35,81.35,0,0,1-87.75,3.07A81.05,81.05,0,0,1,0,83.51,81.37,81.37,0,0,1,85.77,36,45.51,45.51,0,0,0,36,85.75c.07.75.16,1.5.27,2.24,0,.26.08.52.13.77s.1.6.15.89.1.53.16.79a.36.36,0,0,0,0,.1c0,.27.11.55.18.82,0,.06,0,.1,0,.15l.18.77a2.5,2.5,0,0,1,.07.26c.06.25.13.49.19.73.17.61.35,1.23.55,1.84.09.29.18.58.28.87a.42.42,0,0,1,0,.06c.07.19.14.39.22.59s.13.38.2.58l.12.3c.06.18.14.37.21.55l.24.58c.37.92.78,1.83,1.23,2.72.13.29.28.57.42.85l0,0,.28.53.29.54.13.22c.12.23.25.45.39.68s.13.23.21.35.27.47.42.69l.07.12c.19.31.39.62.59.92s.42.63.64.94l.67.93c.22.31.45.61.68.91s.41.52.63.78c.06.09.14.18.21.27s.3.37.46.55.23.27.36.41.42.49.64.72.38.42.58.63.64.67,1,1a45.38,45.38,0,0,0,35.29,13.22l1-.08.9-.09.21,0c.21,0,.43,0,.64-.08l.44-.05.51-.08.59-.09.84-.15.81-.15.47-.1.47-.11.47-.1.84-.21,1-.26.14,0,.74-.22.39-.11.7-.23.24-.08.79-.27.18-.07.81-.3,0,0A6.49,6.49,0,0,1,101.53,123.48Z"/><path class="cls-4" d="M155.58,114.17a80.94,80.94,0,0,0-19.36-50.43q-2.1-2.46-4.41-4.77A80.81,80.81,0,0,0,94.2,37.62h0l1,.32,1,.35c.69.24,1.38.51,2.06.78l1,.43.87.39.22.1c.31.15.62.29.93.45s.66.33,1,.51h0l.9.49.19.1.86.5.67.4.58.36c.35.22.69.45,1,.69s1,.65,1.41,1l.54.4c.24.17.47.35.71.54l.49.4c.14.1.27.22.41.33l.73.61.69.61.15.14.57.53c.36.33.72.68,1.07,1s.55.55.82.84l.6.64q.33.36.66.75c.15.16.29.33.43.49l.61.73a44.71,44.71,0,0,1,3.32,4.64c.19.29.36.59.54.88l.23.4c.18.3.34.6.51.9l.4.74c.35.66.67,1.33,1,2s.61,1.36.88,2,.54,1.38.78,2.07a42.41,42.41,0,0,1,1.25,4.22c.17.71.33,1.42.47,2.14s.26,1.44.36,2.16.19,1.37.25,2a45.94,45.94,0,0,1,.12,7.6l-.09,1c0,.34-.06.69-.1,1l-.12.93-.09.68c0,.22-.07.44-.11.66s-.09.55-.14.83-.13.66-.19,1l0,.06c-.06.3-.12.59-.19.88l-.06.27c-.07.27-.13.55-.2.82l0,.08c-.07.31-.16.62-.25.94a.65.65,0,0,1,0,.13l-.21.75-.12.38c-.07.24-.15.47-.22.71q0,.1-.09.24c-.09.28-.19.55-.29.83s-.24.66-.36,1a.36.36,0,0,1,0,.09,6.56,6.56,0,0,0-.32,3.32,6.38,6.38,0,0,0,1.83,3.51l22.92,22.92,5.73,5.73h0A81.39,81.39,0,0,0,155.58,114.17Z"/><path class="cls-5" d="M127.44,148.12c-1.39,1-2.8,1.88-4.24,2.75l0,0-1.22.72c-.8.47-1.62.92-2.44,1.36l-1,.54c-.58.3-1.15.59-1.74.86l-1,.47-1.2.55-.06,0-1.27.55-1.28.54-1.54.61-1,.39-1.25.44,0,0-1.3.44-1.19.38c-.51.17-1,.32-1.54.47l-1.11.31c-.46.13-.92.26-1.39.37l-.4.1-1,.24c-.94.23-1.88.44-2.82.62s-1.68.32-2.53.47c-.49.08-1,.17-1.48.23-.79.12-1.59.23-2.38.33l-.34,0-1.23.13c-.45.05-.89.09-1.34.12l-1,.08-.69,0c-.4,0-.79.05-1.19.06s-.79,0-1.18.05l-1.37,0H81.26A81.45,81.45,0,0,1,54.37,158l-1.85-.67A81,81,0,0,1,23.8,138.71a81.91,81.91,0,0,1-10-12.16,81.35,81.35,0,0,0,87.75-3.07,6.5,6.5,0,0,1,3,1.73Z"/><path class="cls-6" d="M85.77,36a6.51,6.51,0,0,0-6.84,8.39A27.64,27.64,0,0,1,44.37,78.92,6.51,6.51,0,0,0,36,85.75,45.51,45.51,0,0,1,85.77,36Z"/></g></g></svg>