<svg data-name="图层 1" xmlns="http://www.w3.org/2000/svg" width="24" height="24"><defs><linearGradient id="a" x1="12" x2="12" y2="24" gradientUnits="userSpaceOnUse"><stop offset="0" stop-color="#e57448"/><stop offset="1" stop-color="#db552c"/></linearGradient></defs><circle cx="12" cy="12" r="12" fill="url(#a)"/><path d="M11.37 5.27h1.44v1.87h-1.44zm-4.5 2.26L8 6.62 9.2 8 8.1 9zm-2.35 4.28L5 10.48l1.81.59-.48 1.33zm12.7-.7l1.78-.66.52 1.32-1.79.65zM14.79 8L16 6.48l1.14.87-1.22 1.46zm3.59 8.89h-2v-3.1a4.49 4.49 0 00-4.29-4.67 4.49 4.49 0 00-4.29 4.67v3.1h-2a.22.22 0 00-.21.23v.94a.23.23 0 00.21.23h12.58a.23.23 0 00.21-.23v-.94a.22.22 0 00-.21-.23z" fill="#fff"/></svg>