<?xml version="1.0" standalone="no"?><!DOCTYPE svg PUBLIC "-//W3C//DTD SVG 1.1//EN" "http://www.w3.org/Graphics/SVG/1.1/DTD/svg11.dtd"><svg t="1613715131756" class="icon" viewBox="0 0 1024 1024" version="1.1" xmlns="http://www.w3.org/2000/svg" p-id="1992" xmlns:xlink="http://www.w3.org/1999/xlink" width="104" height="104"><defs><style type="text/css"></style></defs><path d="M0 504.32c0 279.04 230.4 504.32 512 504.32s512-225.28 512-504.32c0-279.04-230.4-504.32-512-504.32s-512 225.28-512 504.32z" fill="#E6EFF9" p-id="1993"></path><path d="M832 872.96c-46.08-28.16-204.8-23.04-220.16-69.12-5.12-12.8-5.12-30.72-5.12-48.64 0-40.96 5.12-84.48 5.12-84.48l-99.84-30.72-99.84 30.72s7.68 43.52 5.12 84.48c0 17.92-2.56 33.28-5.12 46.08-15.36 46.08-174.08 40.96-220.16 69.12-5.12 2.56-10.24 7.68-12.8 12.8 89.6 76.8 204.8 122.88 332.8 122.88s243.2-46.08 332.8-122.88c-2.56-2.56-7.68-7.68-12.8-10.24z" fill="#FCCCA7" p-id="1994"></path><path d="M512 645.12l-102.4 30.72s10.24 51.2 7.68 92.16c17.92 20.48 92.16 23.04 94.72 23.04 0 0 76.8-5.12 94.72-25.6 0-40.96 7.68-92.16 7.68-92.16l-102.4-28.16z" fill="#EFAD7D" p-id="1995"></path><path d="M517.12 1006.08h-5.12 5.12z m-107.52-204.8c-15.36 46.08-176.64 40.96-222.72 69.12-5.12 2.56-7.68 7.68-12.8 12.8 89.6 76.8 207.36 122.88 335.36 122.88l-38.4-138.24c-46.08 0-58.88-71.68-61.44-66.56z m427.52 71.68c-46.08-28.16-204.8-20.48-220.16-66.56-2.56-7.68-15.36 61.44-66.56 61.44l-38.4 138.24c128 0 245.76-46.08 337.92-125.44-5.12-2.56-7.68-5.12-12.8-7.68z" fill="#4F77AA" p-id="1996"></path><path d="M266.24 412.16c-28.16 7.68-20.48 48.64-20.48 64s23.04 69.12 38.4 76.8c40.96 15.36 40.96-40.96 40.96-40.96v-66.56s-30.72-40.96-58.88-33.28z" fill="#FCCCA7" p-id="1997"></path><path d="M757.76 412.16c-28.16-7.68-56.32 33.28-56.32 33.28v66.56s0 58.88 40.96 40.96c15.36-7.68 38.4-61.44 38.4-76.8-2.56-12.8 5.12-53.76-23.04-64z" fill="#FBC69A" p-id="1998"></path><path d="M645.12 199.68c-71.68-58.88-197.12-58.88-271.36 0-74.24 61.44-76.8 130.56-76.8 227.84 0 99.84 7.68 128 7.68 128s12.8 74.24 28.16 92.16c15.36 17.92 30.72 28.16 76.8 66.56 43.52 35.84 64 40.96 97.28 40.96h5.12c33.28 0 56.32-2.56 97.28-40.96 46.08-38.4 61.44-48.64 76.8-66.56 15.36-17.92 28.16-92.16 28.16-92.16v-2.56s5.12-25.6 5.12-125.44c5.12-97.28 2.56-166.4-74.24-227.84z" fill="#FCCCA7" p-id="1999"></path><path d="M645.12 199.68c-35.84-30.72-84.48-43.52-135.68-43.52v599.04h2.56c33.28 0 56.32-2.56 97.28-40.96 46.08-38.4 61.44-48.64 76.8-66.56 15.36-17.92 28.16-92.16 28.16-92.16v-2.56s5.12-25.6 5.12-125.44c5.12-97.28 2.56-166.4-74.24-227.84z" fill="#FBC69A" p-id="2000"></path><path d="M417.28 442.88c-15.36 0-25.6 10.24-25.6 25.6s10.24 25.6 25.6 25.6 25.6-10.24 25.6-25.6-12.8-25.6-25.6-25.6z" fill="#683C11" p-id="2001"></path><path d="M611.84 386.56c-28.16 0-48.64 23.04-56.32 33.28s30.72-7.68 56.32-10.24c28.16-2.56 74.24 17.92 74.24 17.92s-33.28-40.96-74.24-40.96z" fill="#3B2314" p-id="2002"></path><path d="M606.72 442.88c-15.36 0-25.6 10.24-25.6 25.6s10.24 25.6 25.6 25.6 25.6-10.24 25.6-25.6-12.8-25.6-25.6-25.6z" fill="#432918" p-id="2003"></path><path d="M409.6 386.56c-40.96 0-74.24 40.96-74.24 40.96s43.52-17.92 74.24-15.36c25.6 2.56 64 17.92 56.32 10.24-7.68-12.8-25.6-35.84-56.32-35.84z" fill="#3B2314" p-id="2004"></path><path d="M417.28 442.88c-15.36 0-25.6 10.24-25.6 25.6s10.24 25.6 25.6 25.6 25.6-10.24 25.6-25.6-12.8-25.6-25.6-25.6z" fill="#432918" p-id="2005"></path><path d="M512 609.28h-38.4l-30.72-2.56v2.56l35.84 28.16 71.68 5.12 33.28-33.28-25.6-2.56z" fill="#FFFFFF" p-id="2006"></path><path d="M512 609.28l-48.64-2.56-5.12 2.56s-2.56 15.36 56.32 15.36c58.88 0 51.2-15.36 51.2-15.36h-53.76z" fill="#FFFFFF" p-id="2007"></path><path d="M514.56 604.16c-5.12 0-10.24-5.12-20.48-5.12-15.36 0-56.32 5.12-56.32 5.12s10.24 10.24 74.24 10.24c71.68 0 74.24-7.68 74.24-7.68s-35.84-7.68-48.64-5.12c-12.8 0-15.36 2.56-23.04 2.56z" fill="#EDA47E" p-id="2008"></path><path d="M514.56 637.44c-40.96 0-66.56-28.16-66.56-28.16l-7.68-2.56s23.04 48.64 74.24 46.08c58.88 0 74.24-46.08 74.24-46.08l-7.68 2.56c-2.56 0-23.04 28.16-66.56 28.16z" fill="#EDA47E" p-id="2009"></path><path d="M588.8 826.88l-76.8 12.8-71.68-17.92-135.68 56.32-2.56 84.48c64 28.16 135.68 43.52 209.92 43.52 74.24 0 145.92-15.36 209.92-43.52l-2.56-84.48-130.56-51.2z" fill="#4F77AA" p-id="2010"></path><path d="M537.6 1013.76v-7.68c-7.68 7.68-17.92 7.68-25.6 7.68h25.6z m-48.64 0h23.04c-7.68 0-15.36 0-23.04-7.68v7.68zM494.08 911.36l-7.68 94.72h48.64l-7.68-94.72h-33.28z" fill="#30302E" p-id="2011"></path><path d="M512 837.12s-33.28 2.56-43.52 17.92c-17.92 33.28 25.6 61.44 25.6 61.44h33.28s35.84-25.6 25.6-51.2c-5.12-20.48-40.96-28.16-40.96-28.16z" fill="#1D1D1B" p-id="2012"></path><path d="M376.32 821.76l69.12 79.36 69.12-66.56-110.08-69.12z" fill="#829FC2" p-id="2013"></path><path d="M509.44 834.56l69.12 66.56 64-81.92-25.6-53.76z" fill="#829FC2" p-id="2014"></path><path d="M724.48 314.88s0-2.56 0 0c0-5.12 0-10.24-2.56-15.36-2.56-28.16-7.68-87.04-28.16-115.2 0 0-35.84-71.68-138.24-81.92-186.88-17.92-284.16 94.72-284.16 94.72s30.72 10.24 25.6 117.76c0 12.8-2.56 28.16-2.56 43.52v2.56c0 30.72 0 69.12 2.56 110.08 0 5.12 12.8 23.04 17.92-10.24 2.56-30.72 7.68-81.92 17.92-125.44 2.56-15.36 25.6-87.04 89.6-74.24 40.96 7.68 43.52 12.8 87.04 12.8 66.56 2.56 74.24-15.36 110.08-12.8 28.16 2.56 43.52 12.8 56.32 35.84 17.92 51.2 25.6 125.44 28.16 163.84 2.56 30.72 15.36 15.36 17.92 10.24 5.12-64 5.12-117.76 2.56-156.16z" fill="#3B2314" p-id="2015"></path><path d="M709.12 435.2v84.48c0 35.84-15.36 74.24-30.72 81.92-38.4 23.04-56.32-2.56-56.32-2.56s-15.36-20.48-53.76-35.84c-30.72-12.8-56.32 5.12-56.32 5.12s-23.04-15.36-56.32-5.12c-38.4 15.36-53.76 35.84-53.76 35.84s-15.36 28.16-56.32 2.56c-15.36-10.24-30.72-48.64-30.72-81.92v-84.48l-17.92 2.56s-12.8 135.68 15.36 192c15.36 28.16 64 92.16 125.44 130.56 23.04 15.36 48.64 17.92 71.68 17.92s48.64-5.12 71.68-17.92c61.44-35.84 110.08-102.4 125.44-130.56 28.16-56.32 15.36-192 15.36-192l-12.8-2.56z m-125.44 225.28c-25.6 20.48-40.96 30.72-56.32 17.92-10.24-7.68-15.36-17.92-15.36-17.92s-5.12 10.24-15.36 17.92c-15.36 12.8-30.72 2.56-56.32-17.92-25.6-20.48-15.36-61.44 12.8-64 66.56-5.12 58.88-15.36 58.88-15.36s-5.12 10.24 58.88 15.36c28.16 5.12 38.4 43.52 12.8 64z" fill="#3B2314" p-id="2016"></path><path d="M483.84 448c-7.68 2.56 5.12 20.48 5.12 20.48s25.6-12.8 43.52 2.56c7.68 5.12 10.24-20.48 10.24-20.48s-30.72-15.36-58.88-2.56z" fill="#1D1D1B" p-id="2017"></path><path d="M488.96 450.56s-10.24-28.16-107.52-30.72c-97.28 0-94.72 33.28-94.72 33.28s-7.68 87.04 102.4 89.6c110.08 0 104.96-74.24 104.96-74.24l-5.12-17.92z m-102.4 84.48c-79.36 0-81.92-53.76-81.92-66.56 0-20.48 12.8-38.4 81.92-38.4 58.88 0 94.72 12.8 94.72 35.84 0 25.6-17.92 69.12-94.72 69.12z m256-115.2c-97.28 0-107.52 28.16-107.52 28.16l-5.12 17.92s-5.12 74.24 104.96 74.24 102.4-87.04 102.4-87.04 2.56-30.72-94.72-33.28z m-7.68 115.2c-79.36 0-94.72-43.52-94.72-69.12 0-23.04 35.84-35.84 94.72-35.84 69.12 0 81.92 17.92 81.92 38.4 0 12.8-2.56 66.56-81.92 66.56z" fill="#1D1D1B" p-id="2018"></path><path d="M386.56 430.08c-69.12 0-81.92 17.92-81.92 38.4 0 12.8 2.56 66.56 81.92 66.56s94.72-43.52 94.72-69.12c0-23.04-35.84-35.84-94.72-35.84z" fill="#FDD6BA" p-id="2019"></path><path d="M634.88 430.08c-58.88 0-94.72 12.8-94.72 35.84 0 25.6 15.36 69.12 94.72 69.12s81.92-53.76 81.92-66.56c0-20.48-10.24-38.4-81.92-38.4z" fill="#FCD1B0" p-id="2020"></path><path d="M389.12 465.92c0 15.36 12.8 25.6 25.6 25.6 15.36 0 25.6-10.24 25.6-25.6 0-10.24-5.12-17.92-12.8-23.04-7.68-5.12-17.92-5.12-25.6 0-7.68 7.68-12.8 15.36-12.8 23.04zM578.56 468.48c0 15.36 12.8 25.6 25.6 25.6 15.36 0 25.6-10.24 25.6-25.6s-12.8-25.6-25.6-25.6-25.6 10.24-25.6 25.6z" fill="#695447" p-id="2021"></path></svg>