<svg data-name="图层 1" xmlns="http://www.w3.org/2000/svg" width="24" height="24"><defs><linearGradient id="a" x1="12" x2="12" y2="24" gradientUnits="userSpaceOnUse"><stop offset="0" stop-color="#8c0064"/><stop offset="1" stop-color="#740981"/></linearGradient></defs><circle cx="12" cy="12" r="12" fill="url(#a)"/><path d="M13.23 18.75s9.52-1.32 3.52-10.47c0 0 .3 2.11-1.18 2.36a6.12 6.12 0 00-5.12-5.89s.62 3-1.18 4.32c0 0-1 .66-2.36-.79 0 0 .59 2.22-.79 3.53 0 0-2.34 6.29 5.49 6.94 0 0-5.39-3.69-1.16-6.55a1.86 1.86 0 00.79 2.36s-.59-2.94 2-3.92c0 0-.05 1.93.79 2.74 1.69 1.49.47 3.49-.77 5.37zm1.55 0" fill="#fff"/></svg>