<?xml version="1.0" encoding="UTF-8"?>
<svg width="18px" height="18px" viewBox="0 0 18 18" version="1.1" xmlns="http://www.w3.org/2000/svg" xmlns:xlink="http://www.w3.org/1999/xlink">
    <title>icon_delete</title>
    <g id="页面-1" stroke="none" stroke-width="1" fill="none" fill-rule="evenodd">
        <g id="DBM-监控" transform="translate(-664.000000, -142.000000)">
            <g id="操作" transform="translate(220.000000, 136.000000)">
                <g id="标记未处理/button备份" transform="translate(436.000000, 0.000000)">
                    <g id="编组" transform="translate(8.000000, 6.000000)">
                        <polygon id="路径" points="0 0 18 0 18 18 0 18"></polygon>
                        <g transform="translate(2.000000, 2.000000)" fill="#0077FF" fill-rule="nonzero" id="形状">
                            <path d="M8.77613612,12.509251 L13.5839292,12.509251 L13.5839292,13.9985107 L7.40248096,13.9985107 L4.65654431,14 L0.201093811,9.16958591 C-0.0670312702,8.87880805 -0.0670312702,8.40745711 0.201093811,8.11667925 L7.48490027,0.21839001 C7.61372732,0.0785656117 7.78854039,0 7.97083078,0 C8.15312117,0 8.32793424,0.0785656117 8.45676129,0.21839001 L13.7989062,6.01012129 C14.0670313,6.30089915 14.0670313,6.77225009 13.7989062,7.06302795 L8.77613612,12.509251 Z M9.50025255,9 L12,6.49979798 L7.49974745,2 L5,4.50020202 L9.50025255,9 Z"></path>
                        </g>
                    </g>
                </g>
            </g>
        </g>
    </g>
</svg>