<svg width="18px" height="18px" viewBox="0 0 18 18" version="1.1" xmlns="http://www.w3.org/2000/svg" xmlns:xlink="http://www.w3.org/1999/xlink">
    <title>icon_delete</title>
    <g id="页面-1" stroke="none" stroke-width="1" fill="none" fill-rule="evenodd">
        <g id="DBM-监控" transform="translate(-316.000000, -142.000000)">
            <g id="操作" transform="translate(220.000000, 136.000000)">
                <g id="删除/button" transform="translate(88.000000, 0.000000)">
                    <g id="编组" transform="translate(8.000000, 6.000000)">
                        <polygon id="路径" points="0 0 18 0 18 18 0 18"></polygon>
                        <path d="M9,0.666666667 C13.6025,0.666666667 17.3333333,4.3975 17.3333333,9 C17.3333333,13.6025 13.6025,17.3333333 9,17.3333333 C4.3975,17.3333333 0.666666667,13.6025 0.666666667,9 C0.666666667,4.3975 4.3975,0.666666667 9,0.666666667 Z M11.3566667,5.46416667 L9,7.82166667 L6.64333333,5.46416667 L5.46416667,6.64333333 L7.82166667,9 L5.46416667,11.3566667 L6.64333333,12.5358333 L9,10.1783333 L11.3566667,12.5358333 L12.5358333,11.3566667 L10.1783333,9 L12.5358333,6.64333333 L11.3566667,5.46416667 Z" id="形状" fill="#CA2222" fill-rule="nonzero"></path>
                    </g>
                </g>
            </g>
        </g>
    </g>
</svg>
