<?xml version="1.0" encoding="UTF-8"?>
<svg width="18px" height="18px" viewBox="0 0 18 18" version="1.1" xmlns="http://www.w3.org/2000/svg" xmlns:xlink="http://www.w3.org/1999/xlink">
    <title>icon_添加</title>
    <g id="页面-1" stroke="none" stroke-width="1" fill="none" fill-rule="evenodd">
        <g id="DBM-监控" transform="translate(-228.000000, -142.000000)">
            <g id="操作" transform="translate(220.000000, 136.000000)">
                <g id="编组" transform="translate(8.000000, 6.000000)">
                    <polygon id="路径" points="0 0 18 0 18 18 0 18"></polygon>
                    <path d="M9,1 C13.4184,1 17,4.5816 17,9 C17,13.4184 13.4184,17 9,17 C4.5816,17 1,13.4184 1,9 C1,4.5816 4.5816,1 9,1 Z M9.8,5 L8.2,5 L8.2,8.2 L5,8.2 L5,9.8 L8.2,9.8 L8.2,13 L9.8,13 L9.8,9.8 L13,9.8 L13,8.2 L9.8,8.2 L9.8,5 Z" id="形状" fill="#31A105" fill-rule="nonzero"></path>
                </g>
            </g>
        </g>
    </g>
</svg>