<?xml version="1.0" encoding="UTF-8"?>
<svg width="17px" height="16px" viewBox="0 0 17 16" version="1.1" xmlns="http://www.w3.org/2000/svg" xmlns:xlink="http://www.w3.org/1999/xlink">
    <title>lock</title>
    <g id="登陆" stroke="none" stroke-width="1" fill="none" fill-rule="evenodd">
        <g id="1.登录/1.账户密码登录" transform="translate(-547.000000, -392.000000)" fill-rule="nonzero">
            <g id="lock" transform="translate(547.000000, 392.000000)">
                <rect id="矩形" fill="#000000" opacity="0" x="0.5" y="0" width="16" height="16"></rect>
                <path d="M13.5,7.25 L12.4375,7.25 L12.4375,3.75 C12.4375,2.6453125 11.5421875,1.75 10.4375,1.75 L6.5625,1.75 C5.4578125,1.75 4.5625,2.6453125 4.5625,3.75 L4.5625,7.25 L3.5,7.25 C3.2234375,7.25 3,7.4734375 3,7.75 L3,13.75 C3,14.0265625 3.2234375,14.25 3.5,14.25 L13.5,14.25 C13.7765625,14.25 14,14.0265625 14,13.75 L14,7.75 C14,7.4734375 13.7765625,7.25 13.5,7.25 Z M5.6875,3.75 C5.6875,3.2671875 6.0796875,2.875 6.5625,2.875 L10.4375,2.875 C10.9203125,2.875 11.3125,3.2671875 11.3125,3.75 L11.3125,7.25 L5.6875,7.25 L5.6875,3.75 Z M12.875,13.125 L4.125,13.125 L4.125,8.375 L12.875,8.375 L12.875,13.125 Z M8.0625,10.953125 L8.0625,11.78125 C8.0625,11.85 8.11875,11.90625 8.1875,11.90625 L8.8125,11.90625 C8.88125,11.90625 8.9375,11.85 8.9375,11.78125 L8.9375,10.953125 C9.1265625,10.8171875 9.25,10.5953125 9.25,10.34375 C9.25,9.9296875 8.9140625,9.59375 8.5,9.59375 C8.0859375,9.59375 7.75,9.9296875 7.75,10.34375 C7.75,10.5953125 7.8734375,10.8171875 8.0625,10.953125 Z" id="形状" fill="#0077FF"></path>
            </g>
        </g>
    </g>
</svg>