<?xml version="1.0" encoding="UTF-8"?>
<svg width="20px" height="20px" viewBox="0 0 20 20" version="1.1" xmlns="http://www.w3.org/2000/svg" xmlns:xlink="http://www.w3.org/1999/xlink">
    <title>icon1</title>
    <g id="页面-1" stroke="none" stroke-width="1" fill="none" fill-rule="evenodd">
        <g id="颜色取色" transform="translate(-751.000000, -296.000000)">
            <g id="icon1" transform="translate(751.000000, 296.000000)">
                <rect id="矩形" x="0" y="0" width="20" height="20"></rect>
                <g id="编组" transform="translate(2.000000, 2.000000)" fill="#0077FF" fill-rule="nonzero">
                    <path d="M15,12 C15.4631579,12 16,12.5894737 16,13.0526316 L16,13.0526316 L16,15.1578947 C16,15.6210526 15.6210527,16 15.1578947,16 L15.1578947,16 L0.842105251,16 C0.378947369,16 0,15.6210527 0,15.1578947 L0,15.1578947 L0,13.0526316 C0,12.5894737 0.536842098,12 1,12 L1,12 Z M7.78947368,13.4736842 L2.31578947,13.4736842 C1.97894736,13.4736842 1.68421052,13.768421 1.68421052,14.1052632 C1.68421052,14.4421053 1.97894736,14.7368421 2.31578947,14.7368421 L2.31578947,14.7368421 L7.78947368,14.7368421 C8.12631579,14.7368421 8.42105263,14.4421053 8.42105263,14.1052632 C8.42105263,13.768421 8.12631579,13.4736842 7.78947368,13.4736842 L7.78947368,13.4736842 Z M11.5789474,13.4736842 C11.2421053,13.4736842 10.9473684,13.768421 10.9473684,14.1052632 C10.9473684,14.4421053 11.2421053,14.7368421 11.5789474,14.7368421 C11.9157895,14.7368421 12.2105263,14.4421053 12.2105263,14.1052632 C12.2105263,13.768421 11.9157895,13.4736842 11.5789474,13.4736842 Z M13.6842105,13.4736842 C13.3473684,13.4736842 13.0526316,13.768421 13.0526316,14.1052632 C13.0526316,14.4421053 13.3473684,14.7368421 13.6842105,14.7368421 C14.0210526,14.7368421 14.3157895,14.4421053 14.3157895,14.1052632 C14.3157895,13.768421 14.0210526,13.4736842 13.6842105,13.4736842 Z" id="形状结合"></path>
                    <path d="M15.1578947,0 C15.6210526,0 16,0.378947349 16,0.842105251 L16,0.842105251 L16,10.1052632 C16,10.568421 15.6210527,10.9473684 15.1578947,10.9473684 L15.1578947,10.9473684 L0.842105251,10.9473684 C0.378947369,10.9473684 0,10.5684211 0,10.1052632 L0,10.1052632 L0,0.842105251 C0,0.378947369 0.378947349,0 0.842105251,0 L0.842105251,0 Z M10.2736842,2.35789473 C10.0631579,1.9368421 9.64210526,1.72631578 9.17894736,1.81052631 C8.75789474,1.89473684 8.4631579,2.18947368 8.33684211,2.56842105 L8.33684211,2.56842105 L6.56842106,7.91578947 L5.17894737,5.68421053 C5.05263156,5.51578947 4.84210526,5.38947368 4.63157894,5.38947368 L4.63157894,5.38947368 L2.31578947,5.38947368 C1.97894736,5.38947368 1.68421052,5.68421051 1.68421052,6.02105262 C1.68421052,6.35789474 1.97894736,6.65263157 2.31578947,6.65263157 L2.31578947,6.65263157 L4.29473685,6.65263157 L5.72631579,8.96842106 C5.89473683,9.30526317 6.23157895,9.47368422 6.61052631,9.47368422 L6.61052631,9.47368422 L6.82105264,9.47368422 C7.20000001,9.43157894 7.49473684,9.13684211 7.62105263,8.75789474 L7.62105263,8.75789474 L9.38947369,3.41052632 L11.1159895,6.56842106 C11.2842105,6.90526315 11.6631579,7.11598947 12.0421053,7.11598947 L12.0421053,7.11598947 L13.6842105,7.11598947 C14.0210526,7.11598947 14.3157895,6.77894738 14.3157895,6.44210527 C14.3157895,6.10526316 14.0210526,5.81052632 13.6842105,5.81052632 L13.6842105,5.81052632 L12.1684211,5.81052632 Z" id="形状结合"></path>
                </g>
            </g>
        </g>
    </g>
</svg>
