<?xml version="1.0" encoding="UTF-8"?>
<svg width="20px" height="20px" viewBox="0 0 20 20" version="1.1" xmlns="http://www.w3.org/2000/svg" xmlns:xlink="http://www.w3.org/1999/xlink">
    <title>icon1</title>
    <g id="页面-1" stroke="none" stroke-width="1" fill="none" fill-rule="evenodd">
        <g id="颜色取色" transform="translate(-801.000000, -349.000000)">
            <g id="icon1" transform="translate(801.000000, 349.000000)">
                <rect id="矩形" x="0" y="0" width="20" height="20"></rect>
                <g id="编组" transform="translate(1.000000, 1.000000)" fill-rule="nonzero">
                    <path d="M1.8,16.2 L1.8,10.8 C1.8,6.8235498 5.0235498,3.6 9,3.6 C12.9764502,3.6 16.2,6.8235498 16.2,10.8 L16.2,16.2 L18,16.2 L18,18 L0,18 L0,16.2 L1.8,16.2 Z" id="路径" fill="#566776"></path>
                    <path d="M5.4,10.8 C5.4,8.8117749 7.0117749,7.2 9,7.2 L9,5.4 C6.01766235,5.4 3.6,7.81766235 3.6,10.8 L5.4,10.8 Z" id="路径" fill="#99B2C8"></path>
                    <polygon id="路径" fill="#566776" points="8.1 0 9.9 0 9.9 2.7 8.1 2.7"></polygon>
                    <polygon id="路径" fill="#566776" points="16.0002 2.5272 17.2728 3.7998 15.3648 5.7087 14.0913 4.4361"></polygon>
                    <polygon id="路径" fill="#566776" points="0.7272 3.7998 1.9998 2.5272 3.9087 4.4352 2.637 5.7096"></polygon>
                </g>
            </g>
        </g>
    </g>
</svg>