<svg xmlns="http://www.w3.org/2000/svg" xmlns:xlink="http://www.w3.org/1999/xlink" t="1681019751630" class="icon" viewBox="0 0 1024 1024" version="1.1" p-id="23585" width="200" height="200"><path d="M744.2 965.57c-126.34 0-229.11-102.78-229.11-229.11S617.86 507.34 744.2 507.34s229.11 102.78 229.11 229.12S870.53 965.57 744.2 965.57z m0-395.74c-91.88 0-166.63 74.75-166.63 166.63s74.75 166.62 166.63 166.62 166.63-74.75 166.63-166.62-74.76-166.63-166.63-166.63z" fill="#0C5AE5" p-id="23586"/><path d="M478.64 965.57H108.93a31.24 31.24 0 0 1-31.24-31.24V102.67a31.24 31.24 0 0 1 31.24-31.24h729a31.25 31.25 0 0 1 31.24 31.24V411a31.25 31.25 0 0 1-62.49 0V133.92H140.17v769.16h338.47a31.25 31.25 0 0 1 0 62.49z" fill="#0C5AE5" p-id="23587"/><path d="M686.13 327.72h-446.4a31.25 31.25 0 0 1 0-62.49h446.4a31.25 31.25 0 0 1 0 62.49zM558.5 519.59H239.73a31.25 31.25 0 0 1 0-62.49H558.5a31.25 31.25 0 0 1 0 62.49zM430.53 711.46h-190.8a31.25 31.25 0 0 1 0-62.49h190.8a31.25 31.25 0 0 1 0 62.49z" fill="#0C5AE5" p-id="23588"/><path d="M733.78 840.6a31.14 31.14 0 0 1-22.09-9.16l-83.31-83.31A31.24 31.24 0 0 1 672.56 704l83.31 83.32a31.25 31.25 0 0 1-22.09 53.33z" fill="#0C5AE5" p-id="23589"/><path d="M733.75 840.6a31.25 31.25 0 0 1-25.56-49.16L854 583.15A31.25 31.25 0 0 1 905.18 619l-145.8 208.27a31.19 31.19 0 0 1-25.63 13.33z" fill="#0C5AE5" p-id="23590"/></svg>
