<svg xmlns="http://www.w3.org/2000/svg" xmlns:xlink="http://www.w3.org/1999/xlink" t="1681019848352" class="icon" viewBox="0 0 1024 1024" version="1.1" p-id="724" width="200" height="200"><path d="M738.2 952.57c-126.34 0-229.11-102.78-229.11-229.11S611.86 494.34 738.2 494.34s229.11 102.78 229.11 229.12S864.53 952.57 738.2 952.57z m0-395.74c-91.88 0-166.63 74.75-166.63 166.63s74.75 166.62 166.63 166.62 166.63-74.75 166.63-166.62-74.76-166.63-166.63-166.63z" fill="#FE7F00" p-id="725"/><path d="M472.64 952.57H102.93a31.24 31.24 0 0 1-31.24-31.24V89.67a31.24 31.24 0 0 1 31.24-31.24h729a31.25 31.25 0 0 1 31.24 31.24V398a31.25 31.25 0 0 1-62.49 0V120.92H134.17v769.16h338.47a31.25 31.25 0 0 1 0 62.49z" fill="#FE7F00" p-id="726"/><path d="M680.13 314.72h-446.4a31.25 31.25 0 0 1 0-62.49h446.4a31.25 31.25 0 0 1 0 62.49zM552.5 506.59H233.73a31.25 31.25 0 0 1 0-62.49H552.5a31.25 31.25 0 0 1 0 62.49zM424.53 698.46h-190.8a31.25 31.25 0 0 1 0-62.49h190.8a31.25 31.25 0 0 1 0 62.49z" fill="#FE7F00" p-id="727"/><path d="M840.12 764.29H649.91a31.73 31.73 0 0 1 0-63.45h190.21a31.73 31.73 0 1 1 0 63.45z" fill="#FE7F00" p-id="728"/></svg>
