<svg id="图层_1" data-name="图层 1" xmlns="http://www.w3.org/2000/svg" xmlns:xlink="http://www.w3.org/1999/xlink" width="32" height="32" viewBox="0 0 32 32"><defs><style>.cls-1,.cls-2,.cls-3,.cls-4,.cls-5{fill-rule:evenodd;}.cls-1{fill:url(#未命名的渐变_121);}.cls-2{fill:url(#未命名的渐变_118);}.cls-3{fill:url(#未命名的渐变_116);}.cls-4{fill:url(#未命名的渐变_126);}.cls-5{fill:url(#未命名的渐变_85);}</style><linearGradient id="未命名的渐变_121" x1="16" y1="23.52" x2="16" y2="4.23" gradientUnits="userSpaceOnUse"><stop offset="0" stop-color="#008dff"/><stop offset="0.92" stop-color="#5171ec"/></linearGradient><linearGradient id="未命名的渐变_118" x1="8.06" y1="11.61" x2="6.81" y2="25.09" gradientUnits="userSpaceOnUse"><stop offset="0" stop-color="#1535d2"/><stop offset="1" stop-color="#4985ff"/></linearGradient><linearGradient id="未命名的渐变_116" x1="20.07" y1="14.91" x2="16.79" y2="17.53" gradientUnits="userSpaceOnUse"><stop offset="0" stop-color="#1546d2"/><stop offset="1" stop-color="#4985ff"/></linearGradient><linearGradient id="未命名的渐变_126" x1="5.3" y1="23.18" x2="18.39" y2="26.37" gradientUnits="userSpaceOnUse"><stop offset="0" stop-color="#00a6ff"/><stop offset="1" stop-color="#5171ec"/></linearGradient><linearGradient id="未命名的渐变_85" x1="7.03" y1="11.62" x2="10.59" y2="14.47" gradientUnits="userSpaceOnUse"><stop offset="0" stop-color="#1d2f99"/><stop offset="1" stop-color="#5171ec"/></linearGradient></defs><title>2</title><path class="cls-1" d="M32,16a3.2,3.2,0,0,1-1.65,2.85l-8.07,4.67a11.84,11.84,0,0,0-2.56-10c-.2-.24-.41-.47-.64-.7a11.71,11.71,0,0,0-5.44-3.09,6.53,6.53,0,0,0-1.22-.23,11.75,11.75,0,0,0-10,3.32A11.94,11.94,0,0,0,0,16.33,11.77,11.77,0,0,1,3.45,7.68,12,12,0,0,1,5.91,5.79a11.46,11.46,0,0,1,3.44-1.3,11.61,11.61,0,0,1,5.35.12h0a10.77,10.77,0,0,1,2.45.93c.06,0,.14.06.72.4l12.48,7.21A3.2,3.2,0,0,1,32,16Z"/><path class="cls-2" d="M14.7,22.11A11.8,11.8,0,0,1,2,22.56a11.87,11.87,0,0,1-2-6.23,11.94,11.94,0,0,1,2.45-3.56,11.75,11.75,0,0,1,10-3.32,6.58,6.58,0,0,0-7.21,7.2c0,.11,0,.22,0,.33a6.6,6.6,0,0,0,1,2.65,5,5,0,0,0,.85,1,6.61,6.61,0,0,0,7,1.49A1,1,0,0,1,14.7,22.11Z"/><path class="cls-3" d="M22.52,20.77a11.67,11.67,0,0,0-2.8-7.3c-.2-.24-.41-.47-.64-.7a11.71,11.71,0,0,0-5.44-3.09,6.61,6.61,0,0,1,4.68,5.67,6.76,6.76,0,0,1,0,1.1c0,.08,0,0,0,.3A6,6,0,0,1,18.05,18c-.14.39-.38,1,.08,1.4l3.32,3.32.83.83h0A11.58,11.58,0,0,0,22.52,20.77Z"/><path class="cls-4" d="M18.45,25.68l-.61.4a11.84,11.84,0,0,1-4.72,1.61,10.44,10.44,0,0,1-1.35.08,11.83,11.83,0,0,1-3.9-.66L7.6,27a11.72,11.72,0,0,1-4.15-2.69A12.07,12.07,0,0,1,2,22.56a11.8,11.8,0,0,0,12.71-.45,1,1,0,0,1,.43.26Z"/><path class="cls-5" d="M12.42,9.45a.94.94,0,0,0-1,1.21,4,4,0,0,1-5,5,.94.94,0,0,0-.87.17.93.93,0,0,0-.34.82,6.58,6.58,0,0,1,7.21-7.2Z"/></svg>